<svg width="48" height="48" viewBox="0 0 48 48" fill="none" xmlns="http://www.w3.org/2000/svg">
  <path fill-rule="evenodd" clip-rule="evenodd" d="M24 42C33.9411 42 42 33.9411 42 24C42 14.0589 33.9411 6 24 6C14.0589 6 6 14.0589 6 24C6 33.9411 14.0589 42 24 42ZM19.0657 16.0657C19.3781 15.7533 19.3781 15.2467 19.0657 14.9343C18.7533 14.6219 18.2467 14.6219 17.9343 14.9343L14.4343 18.4343C14.1219 18.7467 14.1219 19.2533 14.4343 19.5657L17.9343 23.0657C18.2467 23.3781 18.7533 23.3781 19.0657 23.0657C19.3781 22.7533 19.3781 22.2467 19.0657 21.9343L16.9314 19.8H33C33.4418 19.8 33.8 19.4418 33.8 19C33.8 18.5582 33.4418 18.2 33 18.2H16.9314L19.0657 16.0657ZM30.0657 24.9343C29.7533 24.6219 29.2467 24.6219 28.9343 24.9343C28.6219 25.2467 28.6219 25.7533 28.9343 26.0657L31.0686 28.2H15C14.5582 28.2 14.2 28.5582 14.2 29C14.2 29.4418 14.5582 29.8 15 29.8H31.0686L28.9343 31.9343C28.6219 32.2467 28.6219 32.7533 28.9343 33.0657C29.2467 33.3781 29.7533 33.3781 30.0657 33.0657L33.5657 29.5657C33.8781 29.2533 33.8781 28.7467 33.5657 28.4343L30.0657 24.9343Z" fill="#6C8595"/>
</svg>

