<svg class="IconContainer_icon__XfQWv IconEconomic_icon__ux5iS" xmlns="http://www.w3.org/2000/svg" xmlns:xlink="http://www.w3.org/1999/xlink" width="40" height="40" viewBox="0 0 40 40"><path fill-rule="nonzero" d="M8 3v2H6c-1.054 0-1.918.816-1.995 1.85L4 7v27c0 1.054.816 1.918 1.85 1.995L6 36h28c1.054 0 1.918-.816 1.995-1.85L36 34V7c0-1.054-.816-1.918-1.85-1.995L34 5h-2V3h2c2.142 0 3.891 1.684 3.995 3.8L38 7v27c0 2.142-1.684 3.891-3.8 3.995L34 38H6c-2.142 0-3.891-1.684-3.995-3.8L2 34V7c0-2.142 1.684-3.891 3.8-3.995L6 3h2zm25 13v2H7v-2h26zM12 0v6.126c1.726.445 3 2.01 3 3.874 0 2.21-1.79 4-4 4s-4-1.79-4-4c0-1.864 1.275-3.43 3-3.874V0h2zm18 0v6.126c1.726.445 3 2.01 3 3.874 0 2.21-1.79 4-4 4s-4-1.79-4-4c0-1.864 1.275-3.43 3-3.874V0h2zM11 8c-1.105 0-2 .895-2 2s.895 2 2 2 2-.895 2-2-.895-2-2-2zm18 0c-1.105 0-2 .895-2 2s.895 2 2 2 2-.895 2-2-.895-2-2-2zm-3-5v2H14V3h12z"></path><path d="M12 29c.552 0 1 .448 1 1v2c0 .552-.448 1-1 1H8c-.552 0-1-.448-1-1v-2c0-.552.448-1 1-1h4zm10 0c.552 0 1 .448 1 1v2c0 .513-.386.936-.883.993L22 33h-4c-.552 0-1-.448-1-1v-2c0-.552.448-1 1-1h4zm-10-8c.552 0 1 .448 1 1v2c0 .552-.448 1-1 1H8c-.552 0-1-.448-1-1v-2c0-.552.448-1 1-1h4zm10 0c.552 0 1 .448 1 1v2c0 .552-.448 1-1 1h-4c-.552 0-1-.448-1-1v-2c0-.552.448-1 1-1h4zm10 0c.552 0 1 .448 1 1v2c0 .552-.448 1-1 1h-4c-.552 0-1-.448-1-1v-2c0-.552.448-1 1-1h4z"></path></svg>