<?xml version="1.0" encoding="UTF-8" standalone="no"?>
<svg
   xmlns:dc="http://purl.org/dc/elements/1.1/"
   xmlns:cc="http://creativecommons.org/ns#"
   xmlns:rdf="http://www.w3.org/1999/02/22-rdf-syntax-ns#"
   xmlns:svg="http://www.w3.org/2000/svg"
   xmlns="http://www.w3.org/2000/svg"
   xmlns:sodipodi="http://sodipodi.sourceforge.net/DTD/sodipodi-0.dtd"
   xmlns:inkscape="http://www.inkscape.org/namespaces/inkscape"
   width="175"
   height="35"
   viewBox="0 0 148.44827 29.166667"
   version="1.1"
   id="svg1005"
   sodipodi:docname="logo.svg"
   inkscape:version="0.92.4 (f8dce91, 2019-08-02)">
  <metadata
     id="metadata1011">
    <rdf:RDF>
      <cc:Work
         rdf:about="">
        <dc:format>image/svg+xml</dc:format>
        <dc:type
           rdf:resource="http://purl.org/dc/dcmitype/StillImage" />
        <dc:title></dc:title>
      </cc:Work>
    </rdf:RDF>
  </metadata>
  <defs
     id="defs1009" />
  <sodipodi:namedview
     pagecolor="#ffffff"
     bordercolor="#666666"
     borderopacity="1"
     objecttolerance="10"
     gridtolerance="10"
     guidetolerance="10"
     inkscape:pageopacity="0"
     inkscape:pageshadow="2"
     inkscape:window-width="1920"
     inkscape:window-height="1005"
     id="namedview1007"
     showgrid="false"
     inkscape:zoom="2.9259591"
     inkscape:cx="45.706254"
     inkscape:cy="8.434229"
     inkscape:window-x="1920"
     inkscape:window-y="24"
     inkscape:window-maximized="1"
     inkscape:current-layer="svg1005"
     showguides="true"
     inkscape:guide-bbox="true">
    <sodipodi:guide
       position="44.958621,15.506945"
       orientation="1,0"
       id="guide6864"
       inkscape:locked="false"
       inkscape:label=""
       inkscape:color="rgb(0,0,255)" />
  </sodipodi:namedview>
  <g
     id="g1003"
     style="fill:none;fill-rule:evenodd"
     transform="matrix(1.1831216,0,0,1.1831216,0,5.7097317)">
    <path
       d="M 27.61,7.262 37.058,0 H 32.365 L 25.264,5.527 23.385,4.273 h -4.46 l 4.053,3.05 -3.139,2.694 c -1.6,1.378 -3.842,3.304 -7.164,3.304 -1.31,0 -3.167,-0.3 -4.203,-1.462 L 23.786,0 H 14.522 C 8.853,0 5.958,3.328 5.958,7.447 c 0,0.852 0.183,1.92 0.396,2.415 L 0,14.647 h 4.86 l 2.942,-2.26 c 1.066,1.346 3.337,2.6 5.743,2.613 3.962,0.034 7.537,-2.644 8.809,-3.667 l 2.88,-2.322 7.512,5.636 H 38 Z M 7.04,9.336 C 6.949,9.104 6.857,8.236 6.857,7.726 c 0,-2.756 1.905,-5.14 6.903,-5.14 h 2.62 c 0,0 -0.59,0.262 -1.889,1.238 A 2349.85,2349.85 0 0 1 7.04,9.336 Z"
       id="path999"
       inkscape:connector-curvature="0"
       style="fill:#ffd100" />
    <path
       d="m 61.929,5.58 2.407,-3.366 h 3.79 l -4.314,5.617 4.504,5.875 h -3.884 l -2.574,-3.58 -2.575,3.58 h -3.79 l 4.481,-5.832 -4.313,-5.66 h 3.885 z m 39.239,6.888 0.915,-2.52 c 1.295,0.908 3.192,1.49 4.309,1.49 0.981,0 1.428,-0.345 1.428,-0.863 v -0.043 c 0,-0.712 -1.16,-0.95 -2.478,-1.339 -1.674,-0.475 -3.571,-1.232 -3.571,-3.478 V 5.672 c 0,-2.354 1.964,-3.672 4.375,-3.672 1.518,0 2.866,0.31 4.16,1.152 l -0.693,2.455 c -1.183,-0.67 -2.663,-1.08 -3.534,-1.08 -0.826,0 -1.25,0.346 -1.25,0.8 V 5.37 c 0,0.648 1.138,0.95 2.433,1.382 1.674,0.54 3.616,1.318 3.616,3.435 v 0.043 c 0,2.57 -1.987,3.736 -4.576,3.736 -1.674,0 -3.55,-0.288 -5.134,-1.498 z m 12.122,0 0.915,-2.52 c 1.295,0.908 3.192,1.49 4.308,1.49 0.982,0 1.429,-0.345 1.429,-0.863 v -0.043 c 0,-0.712 -1.16,-0.95 -2.478,-1.339 -1.674,-0.475 -3.571,-1.231 -3.571,-3.478 V 5.672 c 0,-2.354 1.964,-3.672 4.375,-3.672 1.518,0 2.866,0.31 4.16,1.152 l -0.693,2.455 c -1.183,-0.67 -2.664,-1.08 -3.534,-1.08 -0.826,0 -1.25,0.346 -1.25,0.8 V 5.37 c 0,0.648 1.138,0.95 2.433,1.382 1.674,0.54 3.616,1.318 3.616,3.435 v 0.043 c 0,2.57 -1.986,3.736 -4.576,3.736 -1.674,0 -3.55,-0.288 -5.134,-1.498 z M 71.459,2.205 h 3.492 v 1.863 c 0.687,-0.74 1.797,-2.05 3.812,-2.05 2.54,0 4.047,1.337 4.047,4.94 v 6.748 H 79.445 V 7.23 c 0,-1.401 -0.67,-2.237 -1.682,-2.237 -1.178,0 -2.19,0.704 -2.812,1.492 v 7.22 H 71.459 Z M 53.656,10.702 C 53.312,11.535 52.188,14 48.192,14 46.34,14 44.937,13.48 43.799,12.412 42.53,11.24 42,9.782 42,8.012 42,5.774 42.926,4.395 43.746,3.588 45.096,2.286 46.684,2 48.06,2 c 2.328,0 3.678,0.911 4.472,1.848 1.217,1.432 1.376,3.202 1.376,4.425 v 0.26 h -8.574 c 0,0.677 0.185,1.406 0.556,1.9 0.344,0.47 1.058,1.068 2.302,1.068 1.217,0 2.143,-0.573 2.672,-1.484 z M 50.865,6.503 C 50.6,4.968 49.33,4.24 48.139,4.24 c -1.19,0 -2.434,0.755 -2.699,2.264 h 5.425 z m 47.05,4.199 C 97.57,11.535 96.444,14 92.45,14 c -1.852,0 -3.255,-0.52 -4.392,-1.588 -1.27,-1.171 -1.8,-2.63 -1.8,-4.4 0,-2.238 0.926,-3.617 1.747,-4.424 C 89.355,2.286 90.942,2 92.318,2 c 2.329,0 3.678,0.911 4.472,1.848 1.217,1.432 1.376,3.202 1.376,4.425 v 0.26 h -8.573 c 0,0.677 0.185,1.406 0.555,1.9 0.344,0.47 1.059,1.068 2.302,1.068 1.218,0 2.144,-0.573 2.673,-1.484 l 2.791,0.685 z M 95.123,6.503 C 94.859,4.968 93.588,4.239 92.397,4.239 c -1.19,0 -2.434,0.755 -2.699,2.264 z"
       id="path1001"
       inkscape:connector-curvature="0"
       style="fill:#ffffff" />
  </g>
</svg>
