<svg width="48" height="48" viewBox="0 0 48 48" fill="none" xmlns="http://www.w3.org/2000/svg">
<path fill-rule="evenodd" clip-rule="evenodd" d="M41 7H7V41H41V7ZM28.0758 35.5627C29.7761 34.0307 30.6288 31.9174 30.6288 29.2024C30.6288 27.6705 30.2978 26.3307 29.6307 25.1578C28.9736 23.9899 27.9604 22.8574 26.6011 21.7906C25.5176 20.921 24.7803 20.2284 24.3941 19.7026C24.0079 19.1818 23.8122 18.6206 23.8122 18.019C23.8122 17.3617 24.0129 16.8612 24.4041 16.5224C24.8054 16.1786 25.3772 16.0067 26.1145 16.0067C27.4989 16.0067 29.1793 16.5376 31.1555 17.6246L33.503 12.1643C31.296 10.8448 28.8131 10.1875 26.0543 10.1875C24.3389 10.1875 22.794 10.5364 21.4146 11.2442C20.0302 11.957 18.9618 12.9429 18.2044 14.222C17.447 15.5012 17.0709 16.9471 17.0709 18.5549C17.0709 19.9907 17.3768 21.3052 17.9888 22.5085C18.6007 23.7017 19.5838 24.8797 20.9381 26.0375C22.0466 27.0082 22.7288 27.6402 22.9846 27.9385C23.2354 28.2216 23.431 28.5098 23.5765 28.8081C23.7119 29.0963 23.7821 29.4198 23.7821 29.7384C23.7821 30.4259 23.5614 30.9821 23.1251 31.3562C22.6837 31.7303 22.0366 31.9174 21.1789 31.9174C20.1657 31.9174 19.0271 31.6899 17.7731 31.2551C16.5191 30.8102 15.4006 30.2793 14.4375 29.6271V36.0531C15.2551 36.6294 16.2282 37.0541 17.3668 37.3676C18.5004 37.676 19.6992 37.8125 20.9732 37.8125C24.0079 37.8125 26.3754 37.0693 28.0758 35.5627Z" fill="#F25822"/>
</svg>
