<svg width="48" height="48" viewBox="0 0 48 48" fill="none" xmlns="http://www.w3.org/2000/svg">
<path fill-rule="evenodd" clip-rule="evenodd" d="M32 20C33.4013 20 34.7465 20.2402 35.9967 20.6817C35.8273 12.5444 29.1779 6 21 6C12.7157 6 6 12.7157 6 21C6 29.1779 12.5444 35.8273 20.6817 35.9967C20.2402 34.7465 20 33.4013 20 32C20 31.3665 20.0491 30.7445 20.1437 30.1375H18.9133V22.9944C14.7703 22.8015 11.652 21.9815 11.652 20.9976C11.652 20.0137 14.7678 19.1938 18.9133 19.0033V16.7749H13.8128V13.377H27.6987V16.7749H22.5982V19.0033L22.6006 19.0057C25.709 19.1488 28.2377 19.6483 29.3039 20.3041C30.1705 20.1051 31.073 20 32 20ZM24.1936 22.886C23.6116 23.385 23.0779 23.9387 22.6006 24.5393V22.9944C23.1514 22.9691 23.6841 22.9325 24.1936 22.886ZM25.0931 22.1858C26.1904 21.4121 27.4232 20.8179 28.7489 20.4456C28.0195 19.8579 25.6287 19.3972 22.5982 19.2612V21.75C22.4921 21.7597 21.9229 21.8079 20.7847 21.8079C19.8369 21.8079 19.1497 21.7669 18.9109 21.75V19.2588C15.2501 19.4204 12.5154 20.0595 12.5154 20.8216C12.5154 21.586 15.2477 22.2227 18.9109 22.3843V22.3818C19.1473 22.3939 19.8152 22.4204 20.7678 22.4204C21.9591 22.4204 22.4945 22.3891 22.5982 22.3818V22.3843V22.3867C23.4944 22.3464 24.3349 22.2778 25.0931 22.1858ZM32 42C37.5228 42 42 37.5228 42 32C42 26.4772 37.5228 22 32 22C26.4772 22 22 26.4772 22 32C22 37.5228 26.4772 42 32 42ZM31.9982 24.0007L31.9987 24V24.0015L36.9956 32.1466L36.9955 32.1466L36.9957 32.1467L31.9987 35.0485V35.0488V35.0489L31.9983 35.0487L31.998 35.0488V35.0486L31.998 35.0486L31.9978 35.0487L31.9971 35.048L27.001 32.1467L27.0011 32.1467L27.001 32.1466L31.9969 24.0029L31.9978 24L31.9982 24.0007ZM31.9973 39.9944L27.001 33.0776L31.9984 35.9782L36.9988 33.0776L31.9988 39.9954V39.9964L31.9984 39.9959L31.998 39.9964L31.9973 39.9944Z" fill="#8D9194"/>
</svg>
